<?xml version="1.0" standalone="no"?><!DOCTYPE svg PUBLIC "-//W3C//DTD SVG 1.1//EN" "http://www.w3.org/Graphics/SVG/1.1/DTD/svg11.dtd"><svg t="1574240215957" class="icon" viewBox="0 0 1024 1024" version="1.1" xmlns="http://www.w3.org/2000/svg" p-id="3452" xmlns:xlink="http://www.w3.org/1999/xlink" width="200" height="200"><defs><style type="text/css"></style></defs><path d="M678.343111 301.226667v-56.888889h32.768a142.222222 142.222222 0 0 1 142.222222 142.222222v398.222222a142.222222 142.222222 0 0 1-142.222222 142.222222h-398.222222a142.222222 142.222222 0 0 1-142.222222-142.222222v-398.222222a142.222222 142.222222 0 0 1 142.222222-142.222222h29.354667v56.888889H312.888889a85.333333 85.333333 0 0 0-85.333333 85.333333v398.222222a85.333333 85.333333 0 0 0 85.333333 85.333334h398.222222a85.333333 85.333333 0 0 0 85.333333-85.333334v-398.222222a85.333333 85.333333 0 0 0-85.333333-85.333333h-32.768z" p-id="3453"></path><path d="M652.8 537.088a28.444444 28.444444 0 1 0-40.220444-40.220444l-140.8 140.743111-60.302223-60.302223a28.444444 28.444444 0 1 0-40.277333 40.220445L451.697778 698.026667a28.444444 28.444444 0 0 0 36.295111 3.299555l3.982222-3.299555 160.881778-160.938667z" p-id="3454"></path><path d="M454.712889 207.928889a28.444444 28.444444 0 0 1-45.397333-34.190222c-0.739556 0.967111 3.072-8.419556 7.509333-20.992 12.856889-36.124444 46.705778-64.682667 83.797333-64.682667h26.510222c36.352 0 64.512 24.064 82.773334 61.781333 10.979556 22.755556 14.620444 31.459556 14.791111 40.561778a28.444444 28.444444 0 0 1-56.888889 0.853333c0.056889 3.754667-4.266667-6.599111-9.102222-16.611555-9.728-20.081778-20.992-29.696-31.573334-29.696H500.622222c-10.808889 0-24.860444 11.832889-30.151111 26.851555-7.338667 20.593778-11.264 30.208-15.758222 36.124445z" p-id="3455"></path><path d="M598.357333 221.696a28.444444 28.444444 0 1 1 0-56.888889h50.062223a79.530667 79.530667 0 0 1 0 159.061333h-268.515556a79.530667 79.530667 0 1 1 0-159.061333h54.272a28.444444 28.444444 0 1 1 0 56.888889h-54.272a22.641778 22.641778 0 1 0 0 45.283556h268.515556a22.641778 22.641778 0 0 0 0-45.283556h-50.062223z" p-id="3456"></path></svg>