<?xml version="1.0" standalone="no"?><!DOCTYPE svg PUBLIC "-//W3C//DTD SVG 1.1//EN" "http://www.w3.org/Graphics/SVG/1.1/DTD/svg11.dtd"><svg t="1574238887538" class="icon" viewBox="0 0 1024 1024" version="1.1" xmlns="http://www.w3.org/2000/svg" p-id="2892" xmlns:xlink="http://www.w3.org/1999/xlink" width="200" height="200"><defs><style type="text/css"></style></defs><path d="M515.128889 530.773333a199.111111 199.111111 0 1 1 0-398.222222 199.111111 199.111111 0 0 1 0 398.222222z m0-56.888889a142.222222 142.222222 0 1 0 0-284.444444 142.222222 142.222222 0 0 0 0 284.444444z" p-id="2893"></path><path d="M729.770667 559.217778a28.444444 28.444444 0 0 1-39.025778 41.358222 256 256 0 0 0-431.616 186.254222 28.444444 28.444444 0 1 1-56.888889 0 312.888889 312.888889 0 0 1 527.530667-227.669333z" p-id="2894"></path><path d="M787.626667 753.607111l60.302222 60.302222a28.444444 28.444444 0 0 1-40.220445 40.277334l-60.302222-60.302223-60.359111 60.302223a28.444444 28.444444 0 1 1-40.220444-40.220445l60.302222-60.359111-60.302222-60.302222a28.444444 28.444444 0 0 1 40.220444-40.277333l60.302222 60.302222 60.359111-60.302222a28.444444 28.444444 0 0 1 40.220445 40.220444l-60.302222 60.302222z" p-id="2895"></path></svg>