<?xml version="1.0" standalone="no"?><!DOCTYPE svg PUBLIC "-//W3C//DTD SVG 1.1//EN" "http://www.w3.org/Graphics/SVG/1.1/DTD/svg11.dtd"><svg t="1595562644852" class="icon" viewBox="0 0 1024 1024" version="1.1" xmlns="http://www.w3.org/2000/svg" p-id="7621" xmlns:xlink="http://www.w3.org/1999/xlink" width="200" height="200"><defs><style type="text/css"></style></defs><path d="M512.1 865c-14.9 0-27.2-12.2-27.2-27.2V729.2c0-14.9 12.2-27.2 27.2-27.2 14.9 0 27.2 12.2 27.2 27.2v108.7c-0.1 14.9-12.3 27.1-27.2 27.1z" p-id="7622"></path><path d="M638.8 883.1H367.3c-14.9 0-27.2-12.2-27.2-27.2 0-14.9 12.2-27.2 27.2-27.2h271.5c14.9 0 27.2 12.2 27.2 27.2s-12.2 27.2-27.2 27.2zM819.9 593.5H186.2c-14.9 0-27.2-12.2-27.2-27.2 0-14.9 12.2-27.2 27.2-27.2h633.6c14.9 0 27.2 12.2 27.2 27.2-0.1 15-12.2 27.2-27.1 27.2z" p-id="7623"></path><path d="M819.9 738.3H204.3c-35 0-63.3-28.5-63.3-63.3V204.2c0-35 28.5-63.3 63.3-63.3h615.5c35 0 63.3 28.5 63.3 63.3v470.7c0.1 34.9-28.4 63.4-63.2 63.4zM204.3 195.2c-4.9 0-9.1 4-9.1 9.1V675c0 4.9 4 9.1 9.1 9.1h615.5c4.9 0 9.1-4 9.1-9.1V204.2c0-4.9-4-9.1-9.1-9.1H204.3v0.1z" p-id="7624"></path></svg>