<?xml version="1.0" standalone="no"?><!DOCTYPE svg PUBLIC "-//W3C//DTD SVG 1.1//EN" "http://www.w3.org/Graphics/SVG/1.1/DTD/svg11.dtd"><svg t="1575462160805" class="icon" viewBox="0 0 1515 1024" version="1.1" xmlns="http://www.w3.org/2000/svg" p-id="3702" xmlns:xlink="http://www.w3.org/1999/xlink" width="295.8984375" height="200"><defs><style type="text/css"></style></defs><path d="M355.19474 914.284712l365.715288 0L720.910027 548.569425 355.19474 548.569425 355.19474 914.284712zM428.333589 621.715288l219.430575 0 0 218.862466L428.333589 840.577753 428.333589 621.715288z" p-id="3703" fill="#2c2c2c"></path><path d="M501.479452 694.854137l73.138849 0 0 73.145863-73.138849 0 0-73.145863Z" p-id="3704" fill="#2c2c2c"></path><path d="M940.326575 841.145863l73.152877 0 0 73.145863-73.152877 0 0-73.145863Z" p-id="3705" fill="#2c2c2c"></path><path d="M1086.611288 841.145863l73.15989 0 0 73.145863-73.15989 0 0-73.145863Z" p-id="3706" fill="#2c2c2c"></path><path d="M1086.618301 621.715288 1013.479452 621.715288 1013.479452 548.562411 794.041863 548.562411 794.041863 914.284712 867.19474 914.284712 867.19474 694.854137 940.326575 694.854137 940.326575 768 1159.764164 768 1159.764164 548.569425 1159.764164 548.562411 1086.618301 548.562411Z" p-id="3707" fill="#2c2c2c"></path><path d="M355.19474 475.437589l365.715288 0L720.910027 109.715288 355.19474 109.715288 355.19474 475.437589zM428.333589 182.854137l219.430575 0 0 219.430575L428.333589 402.284712 428.333589 182.854137z" p-id="3708" fill="#2c2c2c"></path><path d="M501.479452 256l73.138849 0 0 73.145863-73.138849 0 0-73.145863Z" p-id="3709" fill="#2c2c2c"></path><path d="M794.041863 109.715288l0 365.722301 365.729315 0L1159.771178 109.715288 794.041863 109.715288zM1086.618301 402.284712l-219.423562 0L867.19474 182.854137l219.423562 0L1086.618301 402.284712z" p-id="3710" fill="#2c2c2c"></path><path d="M940.326575 256l73.152877 0 0 73.145863-73.152877 0 0-73.145863Z" p-id="3711" fill="#2c2c2c"></path></svg>