<?xml version="1.0" standalone="no"?><!DOCTYPE svg PUBLIC "-//W3C//DTD SVG 1.1//EN" "http://www.w3.org/Graphics/SVG/1.1/DTD/svg11.dtd"><svg t="1574241352451" class="icon" viewBox="0 0 1024 1024" version="1.1" xmlns="http://www.w3.org/2000/svg" p-id="4174" xmlns:xlink="http://www.w3.org/1999/xlink" width="200" height="200"><defs><style type="text/css"></style></defs><path d="M515.128889 530.773333a199.111111 199.111111 0 1 1 0-398.222222 199.111111 199.111111 0 0 1 0 398.222222z m0-56.888889a142.222222 142.222222 0 1 0 0-284.444444 142.222222 142.222222 0 0 0 0 284.444444zM578.958222 765.098667l113.777778 45.511111 113.777778-45.511111v-109.397334l-113.777778 45.511111-113.777778-45.511111v109.397334z m222.037334-168.448a45.511111 45.511111 0 0 1 62.407111 42.211555v133.916445a45.511111 45.511111 0 0 1-28.558223 42.268444l-142.108444 56.832-142.051556-56.832a45.511111 45.511111 0 0 1-28.615111-42.268444V638.862222a45.511111 45.511111 0 0 1 62.464-42.211555l108.202667 43.235555 108.259556-43.235555z" p-id="4175"></path><path d="M729.770667 559.217778a28.444444 28.444444 0 0 1-39.025778 41.358222 256 256 0 0 0-431.616 186.254222 28.444444 28.444444 0 1 1-56.888889 0 312.888889 312.888889 0 0 1 527.530667-227.669333z" p-id="4176"></path></svg>